<?xml version="1.0" encoding="UTF-8" standalone="no" ?>
<!DOCTYPE svg PUBLIC "-//W3C//DTD SVG 1.1//EN" "http://www.w3.org/Graphics/SVG/1.1/DTD/svg11.dtd">
<svg xmlns="http://www.w3.org/2000/svg" xmlns:xlink="http://www.w3.org/1999/xlink" version="1.1" width="1080" height="1080" viewBox="0 0 1080 1080" xml:space="preserve">
<desc>Created with Fabric.js 5.2.4</desc>
<defs>
</defs>
<g transform="matrix(1 0 0 1 540 540)" id="1dde879f-e19d-4eb2-8aa9-4bb65eabfcde"  >
<rect style="stroke: none; stroke-width: 1; stroke-dasharray: none; stroke-linecap: butt; stroke-dashoffset: 0; stroke-linejoin: miter; stroke-miterlimit: 4; fill: rgb(255,255,255); fill-rule: nonzero; opacity: 1;" vector-effect="non-scaling-stroke"  x="-540" y="-540" rx="0" ry="0" width="1080" height="1080" />
</g>
<g transform="matrix(1 0 0 1 540 540)" id="36808ada-81d7-4084-9663-4e3c92f3806f"  >
</g>
<g transform="matrix(1.05 0 0 1.05 540 540)" id="Layer_1"  >
<path style="stroke: none; stroke-width: 1; stroke-dasharray: none; stroke-linecap: butt; stroke-dashoffset: 0; stroke-linejoin: miter; stroke-miterlimit: 4; fill: rgb(0,0,0); fill-rule: nonzero; opacity: 1;"  transform=" translate(-507.66, -516.35)" d="M 371.80365 198.826187 C 393.984558 185.770554 417.699005 179.521942 442.975708 178.898987 C 445.486908 178.837097 447.962585 179.107925 450.355408 179.969543 C 473.015411 188.129105 495.948669 187.722778 519.171082 182.603378 C 530.076782 180.199203 541.152649 179.158127 552.413208 180.609146 C 557.992737 181.328125 563.828369 181.639862 569.359009 180.835403 C 581.644348 179.048462 593.54834 180.692535 605.566101 182.866928 C 625.860291 186.538773 646.517395 188.203186 666.46521 193.786606 C 674.799866 196.119507 683.206665 198.30629 691.33606 201.237793 C 708.035522 207.25972 720.195984 219.481766 731.492065 232.456543 C 747.12207 250.409317 762.07843 268.949127 777.738525 286.874756 C 784.948425 295.127655 793.490479 302.17276 801.427246 309.748474 C 814.629456 322.350128 823.889709 337.079132 830.341736 354.042328 C 835.749329 368.259521 840.555847 382.493378 842.759705 397.636841 C 844.555603 409.976501 849.36908 421.745117 850.380493 434.292328 C 851.557251 448.890533 852.301147 463.543854 854.087585 478.068085 C 857.042908 502.095551 850.936096 525.967346 853.245117 549.871338 C 855.053711 568.594482 852.283875 586.759277 848.637695 604.889771 C 846.536499 615.338135 843.450806 625.518066 838.221802 634.994507 C 833.150452 644.185303 830.642822 654.509399 825.769348 663.870544 C 815.747498 683.121033 801.339539 699.033142 788.024719 715.861145 C 777.945007 728.600464 766.8255 740.751221 759.738525 755.650024 C 755.68457 764.172424 748.034729 769.400574 741.138733 774.859741 C 725.239868 787.446106 708.601257 799.078552 691.496216 810.070496 C 681.534912 816.471802 671.148804 822.073914 661.020203 828.136169 C 653.625427 832.562073 645.694214 836.54834 637.167603 838.117798 C 617.483948 841.740723 598.444885 848.091431 578.697083 851.395081 C 564.663391 853.742859 550.566223 854.14679 536.415955 853.401794 C 531.395325 853.137451 526.433289 853.777405 521.455994 853.803589 C 489.4263 853.972473 457.506989 852.780823 426.278046 844.601013 C 423.154938 843.782898 419.958099 843.829285 416.832825 844.074829 C 401.494446 845.280212 386.753326 841.366577 371.768738 839.314453 C 356.611023 837.238525 344.028992 830.529419 332.788116 820.627197 C 330.156219 818.308777 327.200684 816.453613 323.999603 814.956848 C 316.88092 811.628235 310.250092 807.59198 304.295654 802.34552 C 298.539398 797.273743 291.534546 793.863953 285.336365 789.436829 C 273.769684 781.175537 261.20929 773.988159 252.396194 762.303894 C 250.913513 760.338196 248.964584 758.6745 247.045578 757.096924 C 241.555923 752.583801 237.731674 746.969727 234.142014 740.813049 C 228.495621 731.128967 223.137222 721.354187 215.706696 712.555664 C 199.21225 693.024475 185.204788 671.71814 179.039932 646.28302 C 178.726532 644.98999 178.56311 643.547058 177.86438 642.47821 C 169.72049 630.020691 172.809982 616.463379 174.199661 603.197754 C 175.128265 594.333374 175.818222 585.649597 172.890396 577.022095 C 171.373932 572.553467 170.742188 567.957947 171.963272 563.257202 C 174.058716 555.190247 170.353485 547.453613 170.56459 539.490173 C 170.820236 529.845581 166.458862 520.922729 165.917664 511.494659 C 165.093994 497.145355 160.977188 483.245361 160.452637 468.93985 C 159.978775 456.016754 162.660263 443.37674 167.101822 431.2948 C 169.075714 425.925385 171.023392 420.707336 171.330856 414.982635 C 172.016235 402.221344 176.242325 390.228729 179.26152 377.969116 C 179.973633 375.077545 180.569962 372.012939 180.40123 369.074921 C 179.799072 358.58963 184.753418 349.681244 190.591431 342.345612 C 197.89032 333.174286 200.812973 322.464417 205.719498 312.447113 C 207.784134 308.231903 211.654572 304.669067 214.902344 301.170929 C 225.316452 289.953979 235.726242 278.792877 243.660049 265.632965 C 246.032211 261.698181 250.502213 261.031464 253.418228 258.099426 C 260.927917 250.548508 269.259064 243.919327 277.94162 237.85347 C 288.873505 230.216171 300.608795 223.895477 313.497467 220.041992 C 333.231964 214.141708 353.081909 208.567566 371.80365 198.826187 M 458.897949 453.362396 C 437.411316 496.808899 415.888611 540.237732 394.506897 583.735779 C 392.805145 587.197693 390.854828 588.827454 386.876984 588.477661 C 382.743439 588.114136 378.479095 587.92157 374.40329 588.531555 C 368.55365 589.407043 365.752747 586.655884 363.277588 581.869141 C 346.743347 549.893616 338.636749 516.297607 342.570221 480.140503 C 345.712128 451.259369 353.492554 423.780212 369.248871 399.303955 C 400.428772 350.868347 444.344879 321.763336 502.178406 315.48587 C 535.58606 311.85965 567.330078 318.754822 596.772949 334.527954 C 634.651917 354.820526 661.895752 385.268982 679.042725 424.717773 C 689.023376 447.679565 695.732056 471.484314 696.102478 496.633057 C 696.534241 525.939941 689.848755 553.818298 676.722778 579.990417 C 649.639587 633.992188 606.682373 667.427551 547.024536 678.526367 C 506.924377 685.986511 468.882446 679.474304 432.908325 660.400696 C 424.557892 655.973328 416.739166 650.722595 408.82254 644.353455 C 405.838348 649.729858 403.260223 654.542419 400.516266 659.258484 C 398.727051 662.333679 399.374908 664.516785 402.328979 666.358826 C 407.416107 669.530884 412.327606 672.994812 417.493011 676.02948 C 458.645142 700.206848 502.995056 707.634033 549.873474 700.50531 C 588.81427 694.583618 623.708923 678.678406 652.04718 651.61145 C 706.590393 599.515015 728.417603 535.33136 714.173035 460.91507 C 702.504211 399.954712 669.684082 352.343994 615.848267 320.459686 C 568.069763 292.162842 517.121582 285.018829 463.509857 300.526367 C 424.770569 311.731995 392.767792 333.463409 367.144043 364.436127 C 346.098053 389.875488 332.145081 418.944122 324.625763 451.100281 C 318.998138 475.166565 317.174805 499.565002 320.645966 523.990234 C 325.029785 554.83783 335.668762 583.647278 352.355255 610.065979 C 354.888275 614.076355 357.270508 618.366943 361.651398 621.584229 C 366.794312 617.947815 370.598999 610.58075 378.989441 614.448303 C 370.046783 632.088135 361.209503 649.520142 352.492126 666.715515 C 354.865814 668.980957 356.952118 668.599915 358.90036 668.569275 C 363.228149 668.501343 367.629608 667.731201 371.860413 668.297607 C 376.768768 668.954712 379.009216 666.963745 381.075012 662.879761 C 388.968872 647.273743 397.290924 631.884155 405.183807 616.277649 C 406.865479 612.952515 408.818298 611.72406 412.48465 611.74762 C 431.814606 611.871399 451.212708 610.77887 470.454041 612.078674 C 483.712036 612.974304 491.595032 609.223999 495.890778 596.465271 C 498.296997 589.318665 498.425781 588.3349 490.770386 588.384644 C 469.945282 588.519836 449.120728 588.744324 428.295593 588.86969 C 426.223114 588.882141 423.941406 589.506897 421.148621 586.785645 C 451.059875 525.396423 479.716339 462.988586 510.782135 401.490051 C 529.269958 444.119049 548.463623 485.891815 564.59906 529.035645 C 556.842896 531.356812 554.579834 530.701538 552.514465 525.908325 C 542.169067 501.899109 531.957214 477.831665 521.461426 453.88855 C 518.831238 447.88855 516.900635 441.498383 512.463318 434.532104 C 488.917694 480.72641 468.684052 527.005249 447.216675 573.900696 C 453.450043 573.900696 458.325104 573.375793 463.039825 574.021729 C 470.417175 575.032471 474.045044 571.960266 476.850739 565.295776 C 485.443634 544.884705 494.5802 524.699951 503.697388 504.513855 C 506.108307 499.175995 507.986359 493.500671 511.501831 488.336273 C 513.969055 490.341705 514.389771 492.688568 515.249023 494.798706 C 523.035278 513.9198 530.863892 533.023621 538.605835 552.162598 C 539.990784 555.586365 542.088257 557.023682 545.905457 556.492615 C 554.705139 555.268311 563.531311 557.056763 572.348572 556.576965 C 575.316345 556.415466 576.759338 557.825623 577.85614 560.500244 C 584.49115 576.679688 591.339355 592.771545 598.004517 608.938782 C 602.372253 619.533142 602.287842 619.569824 613.897339 619.669922 C 616.396973 619.691467 618.896912 619.721252 621.396301 619.699829 C 627.564392 619.646973 628.129578 618.727356 625.732056 612.980713 C 617.33313 592.850037 609.038757 572.675232 600.551697 552.581787 C 580.922974 506.109985 562.255249 459.234406 541.844482 413.090637 C 534.167053 395.733734 526.672791 378.294525 519.262695 360.821716 C 517.66571 357.056 515.096436 356.265076 511.391388 356.272247 C 507.887177 356.279022 505.551941 357.020203 503.87442 360.511658 C 489.088562 391.285522 474.133728 421.978241 458.897949 453.362396 z" stroke-linecap="round" />
</g>
</svg>